PathFileType	4	(X/Y/Z)	Run_500 02
DataRate	CameraRate	NumFrames	NumMarkers	Units	OrigDataRate	OrigDataStartFrame	OrigNumFrames
100	100	6	42	mm	100	124	128
Frame#	Time	LASI			RASI			LPSI			RPSI			RTH1			RTH2			RTH3			LTH1			LTH2			LTH3			RTB1			RTB2			RTB3			LTB1			LTB2			LTB3			RCAL			RTOE			RMT5			LCAL			LTOE			LMT5			LACR			RACR			CLAV			C7			RUA1			RUA2			RUA3			RLEL			RMEL			LUA1			LUA2			LUA3			LLEL			LMEL			RFAsuperior			RFAradius			RFAulna			LFAsuperior			LFAradius			LFAulna			
		X1	Y1	Z1	X2	Y2	Z2	X3	Y3	Z3	X4	Y4	Z4	X5	Y5	Z5	X6	Y6	Z6	X7	Y7	Z7	X8	Y8	Z8	X9	Y9	Z9	X10	Y10	Z10	X11	Y11	Z11	X12	Y12	Z12	X13	Y13	Z13	X14	Y14	Z14	X15	Y15	Z15	X16	Y16	Z16	X17	Y17	Z17	X18	Y18	Z18	X19	Y19	Z19	X20	Y20	Z20	X21	Y21	Z21	X22	Y22	Z22	X23	Y23	Z23	X24	Y24	Z24	X25	Y25	Z25	X26	Y26	Z26	X27	Y27	Z27	X28	Y28	Z28	X29	Y29	Z29	X30	Y30	Z30	X31	Y31	Z31	X32	Y32	Z32	X33	Y33	Z33	X34	Y34	Z34	X35	Y35	Z35	X36	Y36	Z36	X37	Y37	Z37	X38	Y38	Z38	X39	Y39	Z39	X40	Y40	Z40	X41	Y41	Z41	X42	Y42	Z42	

122	3.26	789.282283	950.820636	-445.048094	812.250685	968.634901	-203.674131	640.232025	1016.560904	-360.07569	642.278982	1011.020262	-260.882298	829.38287	747.922555	-129.589748	925.967086	703.855995	-149.236109	918.975333	597.198415	-171.549063	690.1548759999999	755.103472	-477.046383	705.184288	637.172474	-463.944393	608.616268	559.554264	-448.969102	1023.920074	414.781069	-237.3618	1002.219441	329.710071	-193.096394	1045.074207	229.249207	-258.979997	479.072737	419.96404	-378.133525	390.178794	473.568413	-430.223625	285.105944	433.792633	-361.641136	976.653053	100.071768	-284.985449	1189.044118	159.605731	-302.577009	1163.450832	97.562549	-208.690023	204.73658	529.770727	-351.428919	85.920389	350.289186	-306.388263	55.834316	397.916346	-396.648375	846.684239	1439.689437	-449.473201	816.207413	1433.004943	-162.188809	899.330124	1352.686921	-281.315034	790.3511559999999	1476.443077	-309.941966	709.398237	1402.79251	-77.201868	637.6366839999999	1395.83092	-134.63836	600.538021	1350.928857	-60.034803	526.961832	1326.906964	-46.517126	512.55301	1319.088418	-122.747849	810.948993	1346.087728	-560.959844	748.944712	1287.301912	-559.163948	808.772978	1257.605407	-617.125117	796.659814	1178.381548	-662.761739	753.170281	1142.29832	-610.087825	583.512806	1226.873148	-31.425545	664.440105	1126.292018	-87.04903400000001	602.0515339999999	1097.629737	-73.405591	894.021369	1193.214115	-593.0795910000001	955.969481	1180.803176	-471.028973	995.193072	1138.104405	-507.521023	
123	3.27	793.194563	944.51502	-444.047572	812.4565689999999	964.217627	-201.82366	642.613801	1008.440236	-362.461763	642.611824	1003.889099	-262.55854	827.0580619999999	741.267472	-130.438787	920.983248	692.960244	-150.002637	909.157375	585.743245	-173.606665	697.942741	746.764174	-478.190487	717.814001	629.92941	-466.893038	624.894895	549.485623	-451.939457	1007.420614	397.558742	-238.536504	980.176765	314.247698	-194.519524	1018.67295	210.853231	-261.193382	498.054718	416.619746	-382.310415	412.825	479.097016	-431.982033	305.854365	447.057777	-363.419171	942.467021	96.41428500000001	-289.645684	1158.030232	126.038441	-303.056476	1124.059935	70.762798	-208.104088	234.476279	549.62473	-347.33655	99.361864	379.036182	-314.732936	75.675071	434.46892	-402.986885	844.386049	1434.824766	-449.33285	816.696496	1426.32133	-161.033564	899.29702	1347.261179	-282.259527	788.263858	1470.446723	-307.828951	712.143548	1393.440782	-73.766516	638.072943	1385.203338	-127.7602	604.535811	1338.267923	-52.202307	532.611133	1312.019391	-37.110055	515.679259	1304.907219	-112.984204	804.160751	1342.622624	-560.253158	741.05233	1285.366323	-557.29916	799.234861	1254.10433	-617.483681	783.536329	1175.792235	-662.469593	739.837311	1141.292279	-609.166534	592.5917470000001	1214.056042	-24.182474	675.944604	1117.138645	-82.732495	614.609523	1086.4004	-68.121228	883.114421	1182.237739	-594.154858	949.9157	1161.268561	-474.718995	982.578584	1116.568122	-514.894749	
124	3.28	796.908589	937.025863	-442.567397	811.527454	959.0118629999999	-201.077574	644.344104	999.1097109999999	-365.281014	641.365404	996.807765	-264.408055	821.964019	733.289624	-130.031691	914.1550590000001	681.733121	-148.692579	900.048984	575.914044	-173.233478	706.105509	737.87203	-479.102579	730.863752	622.2660969999999	-470.106378	642.4088379999999	538.950061	-454.940951	993.300807	385.396231	-239.896881	957.3373340000001	302.807055	-195.148081	992.873955	198.993602	-267.031115	519.5730119999999	412.856392	-386.652934	438.295483	482.778846	-433.991155	329.922847	458.331631	-365.320186	906.403352	98.525627	-296.563494	1124.023734	95.93776099999999	-307.076641	1082.427214	52.640234	-210.375336	266.104651	565.655221	-344.029227	118.916133	404.005491	-321.503086	102.250869	463.744752	-408.772909	841.508088	1429.937727	-449.673619	817.3878079999999	1419.196293	-159.866961	899.538644	1341.4743	-283.529304	785.640343	1463.266734	-305.902331	715.355051	1382.432718	-70.202237	638.819512	1372.343788	-120.170686	609.606505	1323.570033	-44.044821	539.7288610000001	1295.119157	-26.881222	520.0250559999999	1287.939452	-102.087886	796.292687	1338.415858	-559.479456	732.581994	1282.523248	-555.328125	788.955909	1250.135673	-617.3788500000001	769.668434	1173.141741	-661.893873	726.007849	1139.941595	-608.133516	603.190331	1199.318477	-15.918269	689.025632	1106.417479	-77.73369099999999	629.158242	1073.160228	-61.818354	871.250871	1171.118672	-596.286239	942.826597	1141.402398	-478.88965	968.033917	1095.277364	-523.2527679999999	
125	3.29	799.804216	929.040531	-440.470609	808.667062	953.594873	-201.29547	644.491705	989.17432	-368.465616	638.468835	990.4707969999999	-266.981081	814.185237	726.3304440000001	-128.68993	907.084713	674.820301	-145.524573	894.008612	571.180774	-169.904204	715.5125399999999	729.689411	-479.453239	744.42146	615.166958	-473.056878	661.608186	528.582319	-457.375157	980.684472	380.00508	-242.413369	934.398406	297.103479	-195.171628	966.203429	195.448651	-275.795975	544.148822	408.965307	-390.2977	466.343055	484.034381	-436.136631	357.071002	467.273481	-367.142712	867.092753	103.055178	-304.437137	1086.102949	76.59805	-312.635404	1038.881575	45.898503	-214.086642	299.549224	577.829597	-342.288993	143.736218	424.070806	-325.886857	133.741605	484.569415	-413.689447	837.808398	1425.634416	-450.763193	818.465502	1412.181951	-158.698546	900.078571	1335.860354	-285.035794	783.269805	1456.008496	-303.990942	719.208392	1370.136623	-66.386583	640.485141	1357.635926	-112.050247	616.311367	1306.740897	-35.837385	548.590339	1276.574602	-16.184589	526.06544	1268.463102	-90.472138	787.504493	1333.674181	-558.620825	723.620892	1278.917992	-553.149508	778.001803	1245.922612	-616.825328	755.0149259999999	1170.634893	-660.819124	711.527261	1138.623316	-606.55219	615.641711	1182.874217	-7.114886	703.719385	1094.342446	-72.503016	645.658484	1058.230777	-54.938356	858.357294	1160.300761	-598.934791	933.782392	1120.876492	-484.271034	951.751504	1075.074478	-532.718913	
126	3.3	801.3467900000001	921.440713	-437.622966	803.903741	949.28714	-201.10129	643.062984	980.090418	-371.699854	634.34186	985.446389	-270.408948	806.160515	722.811606	-127.636312	901.057669	674.510217	-142.381194	890.626153	571.492493	-165.255756	726.415003	723.209841	-479.098109	758.92516	609.756	-475.053747	683.222267	519.352414	-458.956853	966.533911	378.624231	-245.760796	911.585976	296.191606	-195.393807	936.009448	196.721564	-283.118966	572.328079	405.402166	-392.24888	496.826888	482.677444	-438.108977	387.451994	473.262483	-368.576521	823.52903	106.862586	-310.303059	1043.490022	69.467392	-316.796749	993.091546	46.929268	-216.827453	334.533225	586.174804	-342.574831	173.237765	437.999835	-328.327273	168.360109	496.76498	-417.856415	833.418773	1422.217403	-452.504093	819.563102	1405.926426	-157.675237	900.717864	1330.992932	-286.678888	782.1316409999999	1450.043426	-301.971593	723.808722	1356.966977	-62.416769	643.376673	1341.553189	-103.572854	625.011567	1288.075869	-27.700627	559.558361	1256.61791	-5.251423	534.196948	1246.86138	-78.424898	778.3797080000001	1329.032232	-557.685635	714.299602	1275.030051	-550.428237	766.51633	1242.035812	-616.221966	739.6579819999999	1168.601464	-659.206178	696.53795	1137.882562	-604.174491	630.543901	1165.105064	1.539903	720.202943	1081.250552	-67.40588200000001	664.323175	1042.093057	-47.981136	844.404762	1150.541092	-601.386747	922.270258	1099.921276	-490.970076	933.749024	1056.979594	-543.146371	
127	3.31	801.441918	915.07452	-434.202649	798.095164	947.385093	-199.032297	640.8322429999999	973.588942	-374.378294	629.849284	982.02871	-274.15964	799.831187	722.64846	-127.66824	894.8982	677.369416	-140.877512	885.677439	572.547277	-162.035607	738.282968	718.61739	-478.235491	775.3976709999999	606.764018	-475.579601	708.140368	512.21844	-459.779188	948.534951	376.032783	-247.003302	888.40864	296.610183	-196.736186	900.995468	196.944296	-284.987226	604.383278	402.667256	-391.865062	529.773607	479.181215	-439.513883	421.214184	475.811336	-369.360534	776.6523549999999	108.846603	-312.193244	997.212819	69.523995	-317.899935	945.429489	49.530728	-217.142822	370.15774	590.891516	-344.847767	206.97995	444.784074	-330.066672	204.90557	500.546847	-421.571091	829.2214750000001	1419.4609	-454.531577	820.095645	1400.902923	-157.129747	901.137565	1327.163129	-288.430395	782.554174	1446.129185	-300.222656	729.0992209999999	1343.439728	-58.806983	647.393276	1324.672279	-95.10944499999999	635.8070269999999	1268.633668	-19.805023	573.219769	1235.566624	5.687765	544.702637	1223.775456	-65.989133	769.836045	1325.278844	-556.783819	704.995954	1271.74446	-546.780106	754.6059770000001	1239.149591	-615.639137	723.89198	1167.40526	-657.065143	681.503566	1138.137274	-601.013228	648.740224	1146.867717	9.187594000000001	738.873734	1067.632658	-62.62804	685.4418899999999	1025.438198	-41.302	829.613194	1142.585227	-603.174088	908.317758	1079.802838	-498.157376	913.875572	1042.078894	-553.721336	
